<svg width="175" height="75" viewBox="0 0 175 75" fill="none" xmlns="http://www.w3.org/2000/svg">
<path d="M11.5 36.7C17.6 36.7 19.4 31.4 19.4 24.7C19.4 16.3 16.6 12.8 11.5 12.8C7.5 12.8 4 16.2 4 24.7C4 33.2 7.5 36.7 11.5 36.7ZM23.1 33.9C23.1 35.5 24 36.1 27.2 36.1V37.6L19.3 37.9V33.3L19.2 33.1C17.4 36.1 15.1 38.2 11.3 38.2C4.4 38.2 0 31.5 0 24.7C0 17.9 4.4 11.3 11 11.3C15.1 11.3 18.4 13.8 19.1 16H19.3V4C19.3 2.4 18.4 1.8 15 1.8V0.2L23 0C23.1 0 23.1 33.9 23.1 33.9Z" fill="black"/>
<path d="M37.4998 2.9998C37.4998 4.4998 36.3998 5.5998 34.8998 5.5998C33.3998 5.5998 32.2998 4.4998 32.2998 2.9998C32.2998 1.4998 33.3998 0.299805 34.8998 0.299805C36.2998 0.299805 37.4998 1.4998 37.4998 2.9998ZM41.6998 37.5998H28.7998V36.0998C32.5998 36.0998 33.4998 35.5998 33.4998 33.8998V15.5998C33.4998 13.9998 32.5998 13.3998 29.1998 13.3998V11.8998L37.1998 11.5998V33.8998C37.1998 35.4998 38.0998 36.0998 41.6998 36.0998V37.5998Z" fill="black"/>
<path d="M69 11.8999V13.3999C66 13.3999 65.5 13.7999 64.4 16.7999L56.3 37.4999H54.7L46.4 16.4999C45.3 13.6999 44.8 13.3999 42 13.3999V11.8999H53.9V13.3999C50.3 13.3999 49.7 13.6999 49.7 14.9999C49.7 16.3999 52.8 22.3999 56.2 32.3999H56.3C60.3 21.6999 62.6 16.6999 62.6 15.1999C62.6 13.8999 61.9 13.3999 58.6 13.3999V11.8999C58.7 11.8999 69 11.8999 69 11.8999Z" fill="black"/>
<path d="M90.3994 24.6998C90.3994 16.9998 87.9994 12.7998 82.6994 12.7998C77.3994 12.7998 74.9994 17.0998 74.9994 24.6998C74.9994 32.2998 77.3994 36.5998 82.6994 36.5998C87.9994 36.5998 90.3994 32.3998 90.3994 24.6998ZM70.8994 24.6998C70.8994 17.8998 75.2994 11.2998 82.6994 11.2998C90.0994 11.2998 94.4994 17.9998 94.4994 24.7998C94.4994 31.5998 90.0994 38.2998 82.6994 38.2998C75.2994 38.2998 70.8994 31.5998 70.8994 24.6998Z" fill="black"/>
<path d="M113.6 11.3001V12.8001H105.4V32.2001C105.4 35.6001 107 36.7001 109 36.7001C110.6 36.7001 113 35.5001 113 31.2001V28.8001H114.5V30.8001C114.5 35.2001 112.5 38.2001 108 38.2001C104 38.2001 101.7 36.0001 101.7 31.9001V12.8001H97.7002V11.3001C102.3 11.3001 103.6 6.8001 103.9 3.1001H105.4V11.3001H113.6Z" fill="black"/>
<path d="M133.4 23.2001C128.4 24.3001 121.8 25.8001 121.8 32.3001C121.8 34.8001 124 36.5001 126.3 36.5001C130.2 36.5001 133.4 32.2001 133.4 27.2001V23.2001ZM137.1 19.2001V33.7001C137.1 35.3001 137.8 35.7001 138.6 35.7001C139.6 35.7001 140.3 34.7001 140.3 31.4001H141.8C141.8 35.1001 140.8 37.5001 137.3 37.5001C134.8 37.5001 133.6 35.9001 133.5 32.8001H133.4C131.9 35.8001 129 38.1001 125.1 38.1001C121.5 38.1001 117.7 36.0001 117.7 31.7001C117.7 24.8001 128.4 22.9001 133.4 21.6001V17.7001C133.4 14.6001 131.8 12.6001 127.8 12.6001C125.5 12.6001 123.2 13.4001 121.7 14.6001L121.8 14.7001C122.9 14.8001 124.1 15.6001 124.1 17.1001C124.1 18.4001 123.2 19.8001 121.5 19.8001C120 19.8001 119 18.7001 119 16.7001C119 13.6001 122.7 11.1001 127.6 11.1001C133.7 11.3001 137.1 13.2001 137.1 19.2001Z" fill="black"/>
<path d="M4.52148 56.6592V66.1807C4.52148 66.5908 4.57357 66.8936 4.67773 67.0889C4.7819 67.2777 4.97721 67.4144 5.26367 67.499C5.55013 67.5771 5.99609 67.6162 6.60156 67.6162C7.16146 67.6162 7.66276 67.5674 8.10547 67.4697C8.55469 67.3656 8.9388 67.2256 9.25781 67.0498C9.58333 66.874 9.86328 66.6462 10.0977 66.3662C10.3385 66.0798 10.5339 65.7738 10.6836 65.4482C10.8333 65.1227 10.9538 64.7419 11.0449 64.3057C11.1361 63.863 11.1979 63.417 11.2305 62.9678C11.263 62.5186 11.2793 62.0107 11.2793 61.4443C11.2793 60.2464 11.1849 59.2438 10.9961 58.4365C10.8073 57.6292 10.5078 56.9912 10.0977 56.5225C9.69401 56.0537 9.21224 55.7217 8.65234 55.5264C8.09245 55.3245 7.40885 55.2236 6.60156 55.2236C5.99609 55.2236 5.55013 55.266 5.26367 55.3506C4.97721 55.4287 4.7819 55.5654 4.67773 55.7607C4.57357 55.9495 4.52148 56.249 4.52148 56.6592ZM0.595703 55.2236V54.54H7.08008C7.68555 54.54 8.29102 54.6279 8.89648 54.8037C9.50195 54.973 10.0879 55.2464 10.6543 55.624C11.2207 55.9951 11.722 56.4443 12.1582 56.9717C12.5944 57.499 12.9427 58.1468 13.2031 58.915C13.4701 59.6768 13.6035 60.5101 13.6035 61.415C13.6035 62.3135 13.4733 63.1501 13.2129 63.9248C12.9525 64.693 12.6074 65.3408 12.1777 65.8682C11.7546 66.3955 11.263 66.848 10.7031 67.2256C10.1497 67.5967 9.57682 67.8701 8.98438 68.0459C8.39844 68.2152 7.81576 68.2998 7.23633 68.2998H0.595703V67.6162C1.3444 67.6162 1.8457 67.5218 2.09961 67.333C2.35352 67.1377 2.48047 66.7926 2.48047 66.2979V56.542C2.48047 56.0472 2.35352 55.7054 2.09961 55.5166C1.8457 55.3213 1.3444 55.2236 0.595703 55.2236ZM19.6777 68.2998H14.7559V67.6162C15.3353 67.6162 15.7324 67.5576 15.9473 67.4404C16.1621 67.3232 16.2695 67.1019 16.2695 66.7764V60.4189C16.2695 60.0934 16.1621 59.8721 15.9473 59.7549C15.7324 59.6377 15.3353 59.5791 14.7559 59.5791V58.8955L18.1543 58.7783V66.7764C18.1543 67.0954 18.2617 67.3167 18.4766 67.4404C18.6979 67.5576 19.0983 67.6162 19.6777 67.6162V68.2998ZM16.2012 54.9795C16.4225 54.7646 16.6862 54.6572 16.9922 54.6572C17.2982 54.6572 17.5618 54.7646 17.7832 54.9795C18.0046 55.1943 18.1152 55.4613 18.1152 55.7803C18.1152 56.0993 18.0046 56.3662 17.7832 56.5811C17.5618 56.7959 17.2982 56.9033 16.9922 56.9033C16.6862 56.9033 16.4225 56.7959 16.2012 56.5811C15.9798 56.3662 15.8691 56.0993 15.8691 55.7803C15.8691 55.4613 15.9798 55.1943 16.2012 54.9795ZM19.7168 59.5791V58.8955H24.4629V59.5791C23.8704 59.5791 23.4831 59.6149 23.3008 59.6865C23.125 59.7516 23.0371 59.9079 23.0371 60.1553C23.0371 60.2139 23.0436 60.279 23.0566 60.3506C23.0762 60.4157 23.112 60.5231 23.1641 60.6729C23.2161 60.8161 23.2747 60.9723 23.3398 61.1416C23.4049 61.3044 23.5059 61.555 23.6426 61.8936C23.7793 62.2256 23.9193 62.5674 24.0625 62.9189C24.2122 63.264 24.4108 63.7425 24.6582 64.3545C24.9121 64.9665 25.166 65.5882 25.4199 66.2197H25.459C25.791 65.4189 26.1165 64.6475 26.4355 63.9053C26.7611 63.1566 26.9954 62.6162 27.1387 62.2842C27.2884 61.9456 27.4251 61.6266 27.5488 61.3271C27.6725 61.0277 27.7507 60.8161 27.7832 60.6924C27.8223 60.5622 27.8418 60.445 27.8418 60.3408C27.8418 60.0218 27.7572 59.8167 27.5879 59.7256C27.4186 59.6279 27.0508 59.5791 26.4844 59.5791V58.8955H30.2832V59.5791C29.8405 59.5791 29.4857 59.6605 29.2188 59.8232C28.9518 59.9795 28.7467 60.2301 28.6035 60.5752L25.3613 68.2998H24.4629L21.2207 60.5752C21.0579 60.1715 20.8789 59.9046 20.6836 59.7744C20.4948 59.6442 20.1725 59.5791 19.7168 59.5791ZM34.4434 67.6553C34.7624 67.792 35.1335 67.8604 35.5566 67.8604C35.9798 67.8604 36.3477 67.792 36.6602 67.6553C36.9792 67.512 37.2624 67.2842 37.5098 66.9717C37.7572 66.6527 37.9427 66.2132 38.0664 65.6533C38.1966 65.0869 38.2617 64.4033 38.2617 63.6025C38.2617 62.8018 38.1966 62.1214 38.0664 61.5615C37.9427 60.9951 37.7572 60.5524 37.5098 60.2334C37.2624 59.9144 36.9792 59.6865 36.6602 59.5498C36.3477 59.4066 35.9798 59.335 35.5566 59.335C35.1335 59.335 34.7624 59.4066 34.4434 59.5498C34.1309 59.6865 33.8509 59.9144 33.6035 60.2334C33.3626 60.5524 33.1771 60.9951 33.0469 61.5615C32.9232 62.1214 32.8613 62.8018 32.8613 63.6025C32.8613 64.4033 32.9232 65.0869 33.0469 65.6533C33.1771 66.2132 33.3626 66.6527 33.6035 66.9717C33.8509 67.2842 34.1309 67.512 34.4434 67.6553ZM33.1055 59.2861C33.8477 58.8695 34.6647 58.6611 35.5566 58.6611C36.4486 58.6611 37.2624 58.8695 37.998 59.2861C38.7402 59.7028 39.3294 60.292 39.7656 61.0537C40.2018 61.8089 40.4199 62.6585 40.4199 63.6025C40.4199 64.5465 40.2018 65.3994 39.7656 66.1611C39.3294 66.9163 38.7402 67.5023 37.998 67.9189C37.2624 68.3356 36.4486 68.5439 35.5566 68.5439C34.6647 68.5439 33.8477 68.3356 33.1055 67.9189C32.3698 67.5023 31.7839 66.9163 31.3477 66.1611C30.918 65.3994 30.7031 64.5465 30.7031 63.6025C30.7031 62.6585 30.918 61.8089 31.3477 61.0537C31.7839 60.292 32.3698 59.7028 33.1055 59.2861ZM43.7695 55.7803H44.4922V58.8955H47.2754V59.5791H44.4922V66.8154C44.4922 67.512 44.86 67.8604 45.5957 67.8604C46.0254 67.8604 46.3737 67.6878 46.6406 67.3428C46.9141 66.9977 47.0508 66.4508 47.0508 65.7021V65.2822H47.6172V65.624C47.6172 66.5941 47.4316 67.3232 47.0605 67.8115C46.6895 68.2998 46.0352 68.5439 45.0977 68.5439C44.7201 68.5439 44.3913 68.5081 44.1113 68.4365C43.8314 68.3649 43.5742 68.2445 43.3398 68.0752C43.1055 67.8994 42.9264 67.6488 42.8027 67.3232C42.679 66.9912 42.6172 66.5843 42.6172 66.1025V59.5791H41.1523V58.8955C41.4714 58.8695 41.7383 58.8337 41.9531 58.7881C42.168 58.7425 42.3633 58.6644 42.5391 58.5537C42.7148 58.443 42.8548 58.3258 42.959 58.2021C43.0697 58.0785 43.1738 57.8896 43.2715 57.6357C43.3757 57.3753 43.4603 57.1149 43.5254 56.8545C43.5905 56.5941 43.6719 56.236 43.7695 55.7803ZM57.4902 65.9756H58.0566C58.0566 66.6722 57.8809 67.2549 57.5293 67.7236C57.1777 68.1859 56.6667 68.417 55.9961 68.417C55.4557 68.417 55.0716 68.2673 54.8438 67.9678C54.6224 67.6683 54.4661 67.2191 54.375 66.6201H54.3359C54.0755 67.3232 53.6719 67.8213 53.125 68.1143C52.5846 68.4007 51.9141 68.5439 51.1133 68.5439C50.3451 68.5439 49.681 68.3454 49.1211 67.9482C48.5677 67.5446 48.291 66.9749 48.291 66.2393C48.291 65.9593 48.3529 65.6924 48.4766 65.4385C48.6068 65.1781 48.7695 64.9502 48.9648 64.7549C49.1667 64.5596 49.4173 64.3675 49.7168 64.1787C50.0228 63.9899 50.319 63.8304 50.6055 63.7002C50.8919 63.5635 51.2207 63.4268 51.5918 63.29C51.9694 63.1468 52.2917 63.0361 52.5586 62.958C52.832 62.8734 53.1348 62.779 53.4668 62.6748C53.8053 62.5706 54.0527 62.4925 54.209 62.4404V60.5752C54.209 60.3408 54.1406 60.139 54.0039 59.9697C53.8672 59.7939 53.6882 59.6637 53.4668 59.5791C53.2454 59.4945 53.0241 59.4326 52.8027 59.3936C52.5879 59.3545 52.373 59.335 52.1582 59.335C51.429 59.335 50.8008 59.5042 50.2734 59.8428C50.5404 59.8883 50.7487 60.0055 50.8984 60.1943C51.0547 60.3831 51.1328 60.6175 51.1328 60.8975C51.1328 61.2035 51.0221 61.4736 50.8008 61.708C50.5794 61.9424 50.3027 62.0596 49.9707 62.0596C49.6387 62.0596 49.362 61.9424 49.1406 61.708C48.9193 61.4736 48.8086 61.2035 48.8086 60.8975C48.8086 60.292 49.1471 59.7679 49.8242 59.3252C50.5078 58.8825 51.3053 58.6611 52.2168 58.6611C53.571 58.6611 54.554 58.8662 55.166 59.2764C55.7845 59.68 56.0938 60.3929 56.0938 61.415V66.2588C56.0938 66.721 56.1426 67.0238 56.2402 67.167C56.3379 67.3102 56.4941 67.3818 56.709 67.3818C56.8587 67.3818 56.9889 67.333 57.0996 67.2354C57.2103 67.1377 57.2917 67.0107 57.3438 66.8545C57.3958 66.6982 57.4316 66.5485 57.4512 66.4053C57.4772 66.2555 57.4902 66.1123 57.4902 65.9756ZM54.209 64.8232V63.0752C53.8118 63.1729 53.4147 63.3031 53.0176 63.4658C52.6204 63.6286 52.2201 63.8369 51.8164 64.0908C51.4128 64.3382 51.084 64.6442 50.8301 65.0088C50.5762 65.3669 50.4492 65.751 50.4492 66.1611C50.4492 66.6234 50.5697 66.9977 50.8105 67.2842C51.0514 67.5641 51.3997 67.7041 51.8555 67.7041C52.5 67.7041 53.0534 67.4339 53.5156 66.8936C53.9779 66.3467 54.209 65.6566 54.209 64.8232ZM62.8516 55.2236V54.54H68.5352V55.2236C67.9362 55.2236 67.5065 55.2757 67.2461 55.3799C66.9857 55.484 66.8555 55.6566 66.8555 55.8975C66.8555 56.1644 67.2852 57.1182 68.1445 58.7588C69.0039 60.3929 69.4661 61.2946 69.5312 61.4639C69.6029 61.3076 69.8828 60.8063 70.3711 59.96C70.8659 59.1071 71.3086 58.29 71.6992 57.5088C72.0964 56.721 72.2949 56.1774 72.2949 55.8779C72.2949 55.6566 72.1647 55.4938 71.9043 55.3896C71.6439 55.279 71.2077 55.2236 70.5957 55.2236V54.54H75.1758V55.2236C74.9349 55.2236 74.7266 55.2367 74.5508 55.2627C74.375 55.2822 74.2122 55.3343 74.0625 55.4189C73.9128 55.4971 73.7923 55.5719 73.7012 55.6436C73.61 55.7087 73.4993 55.8324 73.3691 56.0146C73.2454 56.1969 73.1478 56.3532 73.0762 56.4834C73.0046 56.6136 72.8906 56.8252 72.7344 57.1182L69.9121 62.46V66.2979C69.9121 66.6364 69.9642 66.8968 70.0684 67.0791C70.179 67.2549 70.3906 67.3883 70.7031 67.4795C71.0156 67.5706 71.4714 67.6162 72.0703 67.6162V68.2998H65.791V67.6162C66.6309 67.6162 67.1875 67.5218 67.4609 67.333C67.7344 67.1442 67.8711 66.7992 67.8711 66.2979V62.46L64.8145 56.4443C64.554 55.93 64.2969 55.598 64.043 55.4482C63.7891 55.2985 63.3919 55.2236 62.8516 55.2236ZM77.959 67.6553C78.278 67.792 78.6491 67.8604 79.0723 67.8604C79.4954 67.8604 79.8633 67.792 80.1758 67.6553C80.4948 67.512 80.778 67.2842 81.0254 66.9717C81.2728 66.6527 81.4583 66.2132 81.582 65.6533C81.7122 65.0869 81.7773 64.4033 81.7773 63.6025C81.7773 62.8018 81.7122 62.1214 81.582 61.5615C81.4583 60.9951 81.2728 60.5524 81.0254 60.2334C80.778 59.9144 80.4948 59.6865 80.1758 59.5498C79.8633 59.4066 79.4954 59.335 79.0723 59.335C78.6491 59.335 78.278 59.4066 77.959 59.5498C77.6465 59.6865 77.3665 59.9144 77.1191 60.2334C76.8783 60.5524 76.6927 60.9951 76.5625 61.5615C76.4388 62.1214 76.377 62.8018 76.377 63.6025C76.377 64.4033 76.4388 65.0869 76.5625 65.6533C76.6927 66.2132 76.8783 66.6527 77.1191 66.9717C77.3665 67.2842 77.6465 67.512 77.959 67.6553ZM76.6211 59.2861C77.3633 58.8695 78.1803 58.6611 79.0723 58.6611C79.9642 58.6611 80.778 58.8695 81.5137 59.2861C82.2559 59.7028 82.8451 60.292 83.2812 61.0537C83.7174 61.8089 83.9355 62.6585 83.9355 63.6025C83.9355 64.5465 83.7174 65.3994 83.2812 66.1611C82.8451 66.9163 82.2559 67.5023 81.5137 67.9189C80.778 68.3356 79.9642 68.5439 79.0723 68.5439C78.1803 68.5439 77.3633 68.3356 76.6211 67.9189C75.8854 67.5023 75.2995 66.9163 74.8633 66.1611C74.4336 65.3994 74.2188 64.5465 74.2188 63.6025C74.2188 62.6585 74.4336 61.8089 74.8633 61.0537C75.2995 60.292 75.8854 59.7028 76.6211 59.2861ZM87.7441 67.6357V67.5967C87.4186 67.5902 87.1191 67.5511 86.8457 67.4795C86.5723 67.4014 86.3281 67.2549 86.1133 67.04C85.8984 66.8252 85.791 66.5518 85.791 66.2197C85.791 66.0114 85.8724 65.8128 86.0352 65.624C86.1979 65.4287 86.403 65.2627 86.6504 65.126C86.8978 64.9893 87.1419 64.8786 87.3828 64.7939C87.6237 64.7028 87.8451 64.6377 88.0469 64.5986V64.5596C87.3503 64.3187 86.7773 63.9541 86.3281 63.4658C85.8854 62.9775 85.6641 62.3883 85.6641 61.6982C85.6641 60.917 86.0091 60.2171 86.6992 59.5986C87.3893 58.9736 88.265 58.6611 89.3262 58.6611C90.2767 58.6611 91.0189 58.8076 91.5527 59.1006C91.5527 58.6188 91.6862 58.2445 91.9531 57.9775C92.2201 57.7106 92.5911 57.5771 93.0664 57.5771C93.8802 57.5771 94.2871 57.9515 94.2871 58.7002C94.2871 58.9215 94.209 59.1104 94.0527 59.2666C93.903 59.4229 93.7142 59.501 93.4863 59.501C93.252 59.501 93.0599 59.4391 92.9102 59.3154C92.7604 59.1917 92.6855 59.0322 92.6855 58.8369C92.6855 58.7132 92.7051 58.5537 92.7441 58.3584C92.7051 58.3454 92.653 58.3389 92.5879 58.3389C92.4707 58.3389 92.3535 58.4105 92.2363 58.5537C92.1257 58.6904 92.0703 58.8727 92.0703 59.1006V59.3643C92.4544 59.6442 92.7669 59.9762 93.0078 60.3604C93.2357 60.7249 93.3496 61.1579 93.3496 61.6592C93.3496 62.1019 93.2292 62.5479 92.9883 62.9971C92.7539 63.4398 92.3893 63.8304 91.8945 64.1689C91.4062 64.501 90.8496 64.6898 90.2246 64.7354C89.0983 64.8135 88.3236 64.9209 87.9004 65.0576C87.4772 65.1878 87.2656 65.3896 87.2656 65.6631C87.2656 65.8258 87.3665 65.9528 87.5684 66.0439C87.7702 66.1351 88.0339 66.1969 88.3594 66.2295C88.6849 66.262 89.056 66.2979 89.4727 66.3369C89.8958 66.3695 90.3255 66.402 90.7617 66.4346C91.2044 66.4671 91.6341 66.5387 92.0508 66.6494C92.474 66.7601 92.8483 66.9001 93.1738 67.0693C93.4993 67.2386 93.763 67.4827 93.9648 67.8018C94.1667 68.1208 94.2676 68.5016 94.2676 68.9443C94.2676 69.5107 94.1113 70.0186 93.7988 70.4678C93.4928 70.9235 93.0924 71.2816 92.5977 71.542C92.1029 71.8024 91.5788 72.001 91.0254 72.1377C90.4785 72.2744 89.9316 72.3428 89.3848 72.3428C88.1803 72.3428 87.1582 72.0954 86.3184 71.6006C85.485 71.1058 85.0684 70.5003 85.0684 69.7842C85.0684 69.2113 85.3548 68.7197 85.9277 68.3096C86.5007 67.9059 87.1061 67.6813 87.7441 67.6357ZM86.5137 69.5596C86.5137 70.126 86.7969 70.6175 87.3633 71.0342C87.9297 71.4508 88.6035 71.6592 89.3848 71.6592C90.4395 71.6592 91.276 71.4574 91.8945 71.0537C92.5195 70.6566 92.832 70.1715 92.832 69.5986C92.832 69.0908 92.526 68.6937 91.9141 68.4072C91.3021 68.1208 90.3874 67.9775 89.1699 67.9775C88.304 67.9775 87.6432 68.1338 87.1875 68.4463C86.7383 68.7588 86.5137 69.1299 86.5137 69.5596ZM90.8301 59.9502C90.5111 59.54 90.0716 59.335 89.5117 59.335C88.9518 59.335 88.5091 59.54 88.1836 59.9502C87.8646 60.3538 87.7051 60.9561 87.7051 61.7568C87.7051 62.5576 87.8646 63.1631 88.1836 63.5732C88.5091 63.9769 88.9518 64.1787 89.5117 64.1787C90.0716 64.1787 90.5111 63.9769 90.8301 63.5732C91.1491 63.1631 91.3086 62.5576 91.3086 61.7568C91.3086 60.9561 91.1491 60.3538 90.8301 59.9502ZM104.346 65.9756H104.912C104.912 66.6722 104.736 67.2549 104.385 67.7236C104.033 68.1859 103.522 68.417 102.852 68.417C102.311 68.417 101.927 68.2673 101.699 67.9678C101.478 67.6683 101.322 67.2191 101.23 66.6201H101.191C100.931 67.3232 100.527 67.8213 99.9805 68.1143C99.4401 68.4007 98.7695 68.5439 97.9688 68.5439C97.2005 68.5439 96.5365 68.3454 95.9766 67.9482C95.4232 67.5446 95.1465 66.9749 95.1465 66.2393C95.1465 65.9593 95.2083 65.6924 95.332 65.4385C95.4622 65.1781 95.625 64.9502 95.8203 64.7549C96.0221 64.5596 96.2728 64.3675 96.5723 64.1787C96.8783 63.9899 97.1745 63.8304 97.4609 63.7002C97.7474 63.5635 98.0762 63.4268 98.4473 63.29C98.8249 63.1468 99.1471 63.0361 99.4141 62.958C99.6875 62.8734 99.9902 62.779 100.322 62.6748C100.661 62.5706 100.908 62.4925 101.064 62.4404V60.5752C101.064 60.3408 100.996 60.139 100.859 59.9697C100.723 59.7939 100.544 59.6637 100.322 59.5791C100.101 59.4945 99.8796 59.4326 99.6582 59.3936C99.4434 59.3545 99.2285 59.335 99.0137 59.335C98.2845 59.335 97.6562 59.5042 97.1289 59.8428C97.3958 59.8883 97.6042 60.0055 97.7539 60.1943C97.9102 60.3831 97.9883 60.6175 97.9883 60.8975C97.9883 61.2035 97.8776 61.4736 97.6562 61.708C97.4349 61.9424 97.1582 62.0596 96.8262 62.0596C96.4941 62.0596 96.2174 61.9424 95.9961 61.708C95.7747 61.4736 95.6641 61.2035 95.6641 60.8975C95.6641 60.292 96.0026 59.7679 96.6797 59.3252C97.3633 58.8825 98.1608 58.6611 99.0723 58.6611C100.426 58.6611 101.41 58.8662 102.021 59.2764C102.64 59.68 102.949 60.3929 102.949 61.415V66.2588C102.949 66.721 102.998 67.0238 103.096 67.167C103.193 67.3102 103.35 67.3818 103.564 67.3818C103.714 67.3818 103.844 67.333 103.955 67.2354C104.066 67.1377 104.147 67.0107 104.199 66.8545C104.251 66.6982 104.287 66.5485 104.307 66.4053C104.333 66.2555 104.346 66.1123 104.346 65.9756ZM101.064 64.8232V63.0752C100.667 63.1729 100.27 63.3031 99.873 63.4658C99.4759 63.6286 99.0755 63.8369 98.6719 64.0908C98.2682 64.3382 97.9395 64.6442 97.6855 65.0088C97.4316 65.3669 97.3047 65.751 97.3047 66.1611C97.3047 66.6234 97.4251 66.9977 97.666 67.2842C97.9069 67.5641 98.2552 67.7041 98.7109 67.7041C99.3555 67.7041 99.9089 67.4339 100.371 66.8936C100.833 66.3467 101.064 65.6566 101.064 64.8232ZM122.07 65.4189H122.627C122.627 67.4176 121.833 68.417 120.244 68.417C119.515 68.417 118.955 68.1305 118.564 67.5576C118.18 66.9782 117.988 66.2132 117.988 65.2627C117.988 64.6247 117.946 64.0876 117.861 63.6514C117.783 63.2152 117.669 62.8636 117.52 62.5967C117.376 62.3298 117.171 62.1247 116.904 61.9814C116.637 61.8382 116.354 61.7438 116.055 61.6982C115.755 61.6462 115.374 61.6201 114.912 61.6201H114.131V66.2979C114.131 66.7926 114.261 67.1377 114.521 67.333C114.788 67.5218 115.319 67.6162 116.113 67.6162V68.2998H110.225V67.6162C110.967 67.6162 111.462 67.5218 111.709 67.333C111.963 67.1377 112.09 66.7926 112.09 66.2979V56.542C112.09 56.0472 111.963 55.7054 111.709 55.5166C111.462 55.3213 110.967 55.2236 110.225 55.2236V54.54H117.451C118.083 54.54 118.652 54.6182 119.16 54.7744C119.674 54.9242 120.088 55.1195 120.4 55.3604C120.719 55.5947 120.983 55.8682 121.191 56.1807C121.406 56.4932 121.556 56.7992 121.641 57.0986C121.725 57.3916 121.768 57.6846 121.768 57.9775C121.768 58.4658 121.676 58.9085 121.494 59.3057C121.312 59.7028 121.068 60.0348 120.762 60.3018C120.456 60.5687 120.094 60.7933 119.678 60.9756C119.268 61.1514 118.838 61.2816 118.389 61.3662C117.939 61.4443 117.474 61.4834 116.992 61.4834V61.5225C117.454 61.5941 117.861 61.7308 118.213 61.9326C118.571 62.1344 118.854 62.3721 119.062 62.6455C119.271 62.9124 119.453 63.2087 119.609 63.5342C119.772 63.8597 119.893 64.1852 119.971 64.5107C120.049 64.8298 120.133 65.1423 120.225 65.4482C120.316 65.7477 120.4 66.0146 120.479 66.249C120.557 66.4834 120.667 66.6722 120.811 66.8154C120.954 66.9521 121.126 67.0205 121.328 67.0205C121.497 67.0205 121.641 66.9326 121.758 66.7568C121.875 66.5745 121.956 66.3662 122.002 66.1318C122.048 65.8975 122.07 65.6598 122.07 65.4189ZM114.131 56.376V60.8975C114.899 60.9235 115.664 60.9365 116.426 60.9365C116.901 60.9365 117.321 60.8942 117.686 60.8096C118.05 60.7249 118.382 60.585 118.682 60.3896C118.981 60.1943 119.209 59.9176 119.365 59.5596C119.528 59.2015 119.609 58.7686 119.609 58.2607C119.609 56.236 118.535 55.2236 116.387 55.2236C115.54 55.2236 114.951 55.3115 114.619 55.4873C114.294 55.6631 114.131 55.9593 114.131 56.376ZM132.285 63.5439H125.811C125.811 64.9046 126.074 65.9658 126.602 66.7275C127.129 67.4827 127.832 67.8604 128.711 67.8604C129.329 67.8604 129.873 67.7008 130.342 67.3818C130.817 67.0563 131.273 66.6038 131.709 66.0244L132.188 66.3369C131.862 66.8122 131.527 67.2028 131.182 67.5088C130.843 67.8083 130.407 68.0557 129.873 68.251C129.339 68.4463 128.73 68.5439 128.047 68.5439C127.24 68.5439 126.497 68.3193 125.82 67.8701C125.143 67.4144 124.613 66.8089 124.229 66.0537C123.844 65.2985 123.652 64.4814 123.652 63.6025C123.652 62.7236 123.844 61.9066 124.229 61.1514C124.613 60.3962 125.143 59.7939 125.82 59.3447C126.497 58.889 127.24 58.6611 128.047 58.6611C129.277 58.6611 130.29 59.0876 131.084 59.9404C131.885 60.7868 132.285 61.988 132.285 63.5439ZM125.811 62.8604H130.244C130.244 60.5101 129.499 59.335 128.008 59.335C126.543 59.335 125.811 60.5101 125.811 62.8604ZM135.625 55.7803H136.348V58.8955H139.131V59.5791H136.348V66.8154C136.348 67.512 136.715 67.8604 137.451 67.8604C137.881 67.8604 138.229 67.6878 138.496 67.3428C138.77 66.9977 138.906 66.4508 138.906 65.7021V65.2822H139.473V65.624C139.473 66.5941 139.287 67.3232 138.916 67.8115C138.545 68.2998 137.891 68.5439 136.953 68.5439C136.576 68.5439 136.247 68.5081 135.967 68.4365C135.687 68.3649 135.43 68.2445 135.195 68.0752C134.961 67.8994 134.782 67.6488 134.658 67.3232C134.535 66.9912 134.473 66.5843 134.473 66.1025V59.5791H133.008V58.8955C133.327 58.8695 133.594 58.8337 133.809 58.7881C134.023 58.7425 134.219 58.6644 134.395 58.5537C134.57 58.443 134.71 58.3258 134.814 58.2021C134.925 58.0785 135.029 57.8896 135.127 57.6357C135.231 57.3753 135.316 57.1149 135.381 56.8545C135.446 56.5941 135.527 56.236 135.625 55.7803ZM145.186 67.6162V68.2998H139.912V67.6162C140.492 67.6162 140.889 67.5576 141.104 67.4404C141.318 67.3232 141.426 67.1019 141.426 66.7764V60.4189C141.426 60.0999 141.322 59.8818 141.113 59.7646C140.911 59.641 140.537 59.5791 139.99 59.5791V58.8955L143.164 58.7783V61.5029H143.213C143.33 61.0667 143.457 60.6924 143.594 60.3799C143.73 60.0609 143.903 59.7646 144.111 59.4912C144.32 59.2178 144.577 59.0127 144.883 58.876C145.189 58.7327 145.544 58.6611 145.947 58.6611C146.455 58.6611 146.846 58.8044 147.119 59.0908C147.393 59.3773 147.529 59.693 147.529 60.0381C147.529 60.318 147.425 60.5654 147.217 60.7803C147.015 60.9951 146.764 61.1025 146.465 61.1025C146.152 61.1025 145.911 61.0179 145.742 60.8486C145.573 60.6729 145.488 60.4417 145.488 60.1553C145.488 59.8167 145.628 59.5596 145.908 59.3838C145.778 59.3512 145.69 59.335 145.645 59.335C144.967 59.335 144.408 59.9111 143.965 61.0635C143.529 62.2158 143.311 63.7295 143.311 65.6045C143.311 65.917 143.314 66.1611 143.32 66.3369C143.333 66.5127 143.363 66.6885 143.408 66.8643C143.454 67.0335 143.512 67.1605 143.584 67.2451C143.662 67.3232 143.773 67.3949 143.916 67.46C144.066 67.5251 144.238 67.5674 144.434 67.5869C144.629 67.6064 144.88 67.6162 145.186 67.6162ZM156.719 63.5439H150.244C150.244 64.9046 150.508 65.9658 151.035 66.7275C151.562 67.4827 152.266 67.8604 153.145 67.8604C153.763 67.8604 154.307 67.7008 154.775 67.3818C155.251 67.0563 155.706 66.6038 156.143 66.0244L156.621 66.3369C156.296 66.8122 155.96 67.2028 155.615 67.5088C155.277 67.8083 154.84 68.0557 154.307 68.251C153.773 68.4463 153.164 68.5439 152.48 68.5439C151.673 68.5439 150.931 68.3193 150.254 67.8701C149.577 67.4144 149.046 66.8089 148.662 66.0537C148.278 65.2985 148.086 64.4814 148.086 63.6025C148.086 62.7236 148.278 61.9066 148.662 61.1514C149.046 60.3962 149.577 59.7939 150.254 59.3447C150.931 58.889 151.673 58.6611 152.48 58.6611C153.711 58.6611 154.723 59.0876 155.518 59.9404C156.318 60.7868 156.719 61.988 156.719 63.5439ZM150.244 62.8604H154.678C154.678 60.5101 153.932 59.335 152.441 59.335C150.977 59.335 150.244 60.5101 150.244 62.8604ZM167.119 65.9756H167.686C167.686 66.6722 167.51 67.2549 167.158 67.7236C166.807 68.1859 166.296 68.417 165.625 68.417C165.085 68.417 164.701 68.2673 164.473 67.9678C164.251 67.6683 164.095 67.2191 164.004 66.6201H163.965C163.704 67.3232 163.301 67.8213 162.754 68.1143C162.214 68.4007 161.543 68.5439 160.742 68.5439C159.974 68.5439 159.31 68.3454 158.75 67.9482C158.197 67.5446 157.92 66.9749 157.92 66.2393C157.92 65.9593 157.982 65.6924 158.105 65.4385C158.236 65.1781 158.398 64.9502 158.594 64.7549C158.796 64.5596 159.046 64.3675 159.346 64.1787C159.652 63.9899 159.948 63.8304 160.234 63.7002C160.521 63.5635 160.85 63.4268 161.221 63.29C161.598 63.1468 161.921 63.0361 162.188 62.958C162.461 62.8734 162.764 62.779 163.096 62.6748C163.434 62.5706 163.682 62.4925 163.838 62.4404V60.5752C163.838 60.3408 163.77 60.139 163.633 59.9697C163.496 59.7939 163.317 59.6637 163.096 59.5791C162.874 59.4945 162.653 59.4326 162.432 59.3936C162.217 59.3545 162.002 59.335 161.787 59.335C161.058 59.335 160.43 59.5042 159.902 59.8428C160.169 59.8883 160.378 60.0055 160.527 60.1943C160.684 60.3831 160.762 60.6175 160.762 60.8975C160.762 61.2035 160.651 61.4736 160.43 61.708C160.208 61.9424 159.932 62.0596 159.6 62.0596C159.268 62.0596 158.991 61.9424 158.77 61.708C158.548 61.4736 158.438 61.2035 158.438 60.8975C158.438 60.292 158.776 59.7679 159.453 59.3252C160.137 58.8825 160.934 58.6611 161.846 58.6611C163.2 58.6611 164.183 58.8662 164.795 59.2764C165.413 59.68 165.723 60.3929 165.723 61.415V66.2588C165.723 66.721 165.771 67.0238 165.869 67.167C165.967 67.3102 166.123 67.3818 166.338 67.3818C166.488 67.3818 166.618 67.333 166.729 67.2354C166.839 67.1377 166.921 67.0107 166.973 66.8545C167.025 66.6982 167.061 66.5485 167.08 66.4053C167.106 66.2555 167.119 66.1123 167.119 65.9756ZM163.838 64.8232V63.0752C163.441 63.1729 163.044 63.3031 162.646 63.4658C162.249 63.6286 161.849 63.8369 161.445 64.0908C161.042 64.3382 160.713 64.6442 160.459 65.0088C160.205 65.3669 160.078 65.751 160.078 66.1611C160.078 66.6234 160.199 66.9977 160.439 67.2842C160.68 67.5641 161.029 67.7041 161.484 67.7041C162.129 67.7041 162.682 67.4339 163.145 66.8936C163.607 66.3467 163.838 65.6566 163.838 64.8232ZM170.059 55.7803H170.781V58.8955H173.564V59.5791H170.781V66.8154C170.781 67.512 171.149 67.8604 171.885 67.8604C172.314 67.8604 172.663 67.6878 172.93 67.3428C173.203 66.9977 173.34 66.4508 173.34 65.7021V65.2822H173.906V65.624C173.906 66.5941 173.721 67.3232 173.35 67.8115C172.979 68.2998 172.324 68.5439 171.387 68.5439C171.009 68.5439 170.68 68.5081 170.4 68.4365C170.12 68.3649 169.863 68.2445 169.629 68.0752C169.395 67.8994 169.215 67.6488 169.092 67.3232C168.968 66.9912 168.906 66.5843 168.906 66.1025V59.5791H167.441V58.8955C167.76 58.8695 168.027 58.8337 168.242 58.7881C168.457 58.7425 168.652 58.6644 168.828 58.5537C169.004 58.443 169.144 58.3258 169.248 58.2021C169.359 58.0785 169.463 57.8896 169.561 57.6357C169.665 57.3753 169.749 57.1149 169.814 56.8545C169.88 56.5941 169.961 56.236 170.059 55.7803Z" fill="#778186"/>
</svg>
